DBRep_DrawableShape

CASCADE Topology V1, (c) Matra-Datavision
Locations 10
1
              1               0               0               0 
              0               1               0             100 
              0               0               1               0 
1
              1               0               0               0 
              0               1               0               0 
              0               0               1              25 
2  1 1 2 1 0
1
              1               0               0               0 
              0               1               0             100 
              0               0               1               0 
1
              1               0               0               0 
              0               1               0             100 
              0               0               1               0 
2  1 -1 0
2  2 -1 0
2  2 -1 1 -1 0
2  4 -1 0
2  5 -1 0
Curve2ds 20
1 0 0 1 0 
1 0 -100 1 0 
1 0 0 1 0 
1 0 -25 1 0 
1 0 0 1 0 
1 0 -25 1 0 
1 0 0 0 -1 
1 1 0 0 -1 
1 0 0 0 -1 
1 0 0 0 -1 
1 1 0 0 -1 
1 1 0 0 -1 
1 0 0 1 0 
1 0 -100 1 0 
1 0 0 0 -1 
1 1 0 0 -1 
1 0 0 1 0 
1 0 -100 1 0 
1 0 0 0 -1 
1 1 0 0 -1 
Curves 21
6 0 3 0 0 0  50 0 25  100 0 0  150 0 0  
1 0 0 0 0 1 0 
1 150 0 0 0 1 0 
1 0 0 0 0 0 1 
1 0 100 0 0 0 1 
1 150 0 0 0 0 1 
1 150 100 0 0 0 1 
6 0 3 0 0 55  50 0 55  120 0 40  150 0 55  
1 0 0 55 0 1 0 
1 150 0 55 0 1 0 
1 0 0 55 0 0 -1 
1 150 0 55 0 0 -1 
1 150 100 55 0 0 -1 
1 0 100 55 0 0 -1 
6 0 3 0 0 75  50 0 75  120 0 60  150 0 65  
1 0 0 75 0 1 0 
1 150 0 65 0 1 0 
1 0 0 75 0 0 -1 
1 150 0 65 0 0 -1 
1 150 100 65 0 0 -1 
1 0 100 75 0 0 -1 
Polygon3D 0
PolygonOnTriangulations 0
Surfaces 15
6 -0 -1 -0 
6 0 3 0 0 0  50 0 25  100 0 0  150 0 0  
6 -0 -0 -1 
6 0 3 0 0 0  50 0 25  100 0 0  150 0 0  
6 -0 -0 -1 
6 0 3 0 100 0  50 100 25  100 100 0  150 100 0  
6 -0 -1 -0 
6 0 3 0 0 55  50 0 55  120 0 40  150 0 55  
6 -0 -1 -0 
6 0 3 0 0 75  50 0 75  120 0 60  150 0 65  
1 0 0 0 -1 0 0 0 1 0 0 0 -1 
1 150 0 0 -1 0 0 0 1 0 0 0 -1 
1 0 50 40 1 0 0 -0 0 1 0 -1 0 
1 74.822958864791801 0 41.350284355050981 -0 -1 -0 0 0 -1 1 -0 0 
1 150 50 40 -1 -0 -0 0 0 -1 0 -1 0 
1 74.822958864791815 100 41.350284355050981 0 1 0 0 -0 1 1 0 -0 
1 0 50 65 -1 -0 -0 0 0 -1 0 -1 0 
1 73.573477252097632 0 59.699899660234827 -0 -1 -0 0 0 -1 1 -0 0 
1 150 50 60 1 0 0 -0 0 1 0 -1 0 
1 73.573477252097632 100.00000000000001 59.699899660234827 -2.0170901931128908e-31 1 -1.8564303712652899e-30 0 1.8564303712652899e-30 1 1 2.0170901931128908e-31 -3.7445874960761392e-61 
Triangulations 0

TShapes 78
Ve
1e-07
0 0 0
0 0

0101101
*
Ve
1e-07
50 0 25
0 0

0101101
*
Ve
1e-07
100 0 0
0 0

0101101
*
Ve
1e-07
150 0 0
0 0

0101101
*
Ve
1e-07
0 0 55
0 0

0101101
*
Ve
1e-07
50 0 55
0 0

0101101
*
Ve
1e-07
120 0 40
0 0

0101101
*
Ve
1e-07
150 0 55
0 0

0101101
*
Ve
1e-07
0 0 75
0 0

0101101
*
Ve
1e-07
50 0 75
0 0

0101101
*
Ve
1e-07
120 0 60
0 0

0101101
*
Ve
1e-07
150 0 65
0 0

0101101
*
Ed
 1e-07 1 1 0
1  1 0 0 1
2  1 1 0 0 1
2  2 1 6 0 1
2  3 2 0 0 1
2  4 2 7 0 1
2  5 3 6 0 1
2  6 3 8 0 1
0

0101000
+78 0 -75 0 *
Ed
 1e-07 1 1 0
1  2 0 0 100
2  7 1 0 0 100
0

0101000
+78 0 -78 1 *
Ed
 1e-07 1 1 0
1  3 0 0 100
2  8 1 0 0 100
0

0101000
+75 0 -75 1 *
Ed
 1e-07 1 1 0
1  4 0 0 25
2  9 2 0 0 25
0

0101000
+78 0 -78 2 *
Ed
 1e-07 1 1 0
1  5 0 0 25
2  10 3 0 0 25
0

0101000
+78 1 -78 3 *
Ed
 1e-07 1 1 0
1  6 0 0 25
2  11 2 0 0 25
0

0101000
+75 0 -75 2 *
Ed
 1e-07 1 1 0
1  7 0 0 25
2  12 3 0 0 25
0

0101000
+75 1 -75 3 *
Ed
 1e-07 1 1 0
1  8 0 0 1
2  13 4 0 0 1
2  14 4 9 0 1
0

0101000
+74 0 -71 0 *
Ed
 1e-07 1 1 0
1  9 0 0 100
2  15 4 0 0 100
0

0101000
+74 0 -74 4 *
Ed
 1e-07 1 1 0
1  10 0 0 100
2  16 4 0 0 100
0

0101000
+71 0 -71 4 *
Ed
 1e-07 1 1 0
1  11 0 0 30
0

0101000
+74 0 -78 2 *
Ed
 1e-07 1 1 0
1  12 0 0 30
0

0101000
+71 0 -75 2 *
Ed
 1e-07 1 1 0
1  13 0 0 30
0

0101000
+71 4 -75 3 *
Ed
 1e-07 1 1 0
1  14 0 0 30
0

0101000
+74 4 -78 3 *
Ed
 1e-07 1 1 0
1  15 0 0 1
2  17 5 0 0 1
2  18 5 10 0 1
0

0101000
+70 0 -67 0 *
Ed
 1e-07 1 1 0
1  16 0 0 100
2  19 5 0 0 100
0

0101000
+70 0 -70 5 *
Ed
 1e-07 1 1 0
1  17 0 0 100
2  20 5 0 0 100
0

0101000
+67 0 -67 5 *
Ed
 1e-07 1 1 0
1  18 0 0 20
0

0101000
+70 0 -74 0 *
Ed
 1e-07 1 1 0
1  19 0 0 10
0

0101000
+67 0 -71 0 *
Ed
 1e-07 1 1 0
1  20 0 0 10
0

0101000
+67 5 -71 4 *
Ed
 1e-07 1 1 0
1  21 0 0 20
0

0101000
+70 5 -74 4 *
Wi

0101100
+65 0 -64 0 -66 0 +66 1 *
Wi

0101100
+63 0 -62 0 -65 0 +65 2 *
Wi

0101100
+61 0 -60 0 -64 0 +64 2 *
Wi

0101100
+63 0 -61 0 -66 0 +66 2 *
Wi

0101100
+62 0 -60 0 -66 1 +66 3 *
Wi

0101100
+58 0 -57 0 -59 0 +59 4 *
Wi

0101100
+65 2 -53 0 -58 0 +56 0 *
Wi

0101100
+56 0 +66 2 -55 0 -59 0 *
Wi

0101100
-64 2 -55 0 +57 0 +54 0 *
Wi

0101100
+54 0 -66 3 -53 0 +59 4 *
Wi

0101100
+58 0 +59 4 -57 0 -59 0 *
Wi

0101100
+65 2 +66 3 -64 2 -66 2 *
Wi

0101100
+51 0 -50 0 -52 0 +52 5 *
Wi

0101100
+46 0 -58 0 -49 0 +51 0 *
Wi

0101100
+49 0 +59 0 -48 0 -52 0 *
Wi

0101100
+48 0 +57 0 -47 0 -50 0 *
Wi

0101100
+47 0 -59 4 -46 0 +52 5 *
Wi

0101100
+51 0 +52 5 -50 0 -52 0 *
Wi

0101100
+58 0 +59 4 -57 0 -59 0 *
Fa
0  1e-07 1 0

0101000
+45 0 *
Fa
0  1e-07 6 0

0101000
+44 0 *
Fa
0  1e-07 7 0

0101000
+43 0 *
Fa
0  1e-07 2 0

0101000
+42 0 *
Fa
0  1e-07 3 0

0101000
+41 0 *
Fa
0  1e-07 4 0

0101000
+40 0 *
Fa
0  1e-07 8 0

0111000
+39 0 *
Fa
0  1e-07 9 0

0111000
+38 0 *
Fa
0  1e-07 10 0

0111000
+37 0 *
Fa
0  1e-07 11 0

0111000
+36 0 *
Fa
0  1e-07 4 0

0111000
+35 0 *
Fa
0  1e-07 1 0

0111000
+34 7 *
Fa
0  1e-07 5 0

0101000
+33 0 *
Fa
0  1e-07 12 0

0111000
+32 0 *
Fa
0  1e-07 13 0

0111000
+31 0 *
Fa
0  1e-07 14 0

0111000
+30 0 *
Fa
0  1e-07 15 0

0111000
+29 0 *
Fa
0  1e-07 5 0

0111000
+28 0 *
Fa
0  1e-07 4 0

0111000
+27 0 *
Sh

0101100
+25 0 -24 0 -23 0 +22 0 +26 0 -26 2 *
Sh

0101100
+20 0 -17 0 +18 0 +16 0 -19 0 -15 2 *
Sh

0101100
+9 0 -13 0 -10 0 -11 0 -12 0 -8 0 *
So

0100000
+7 0 *
So

0100000
-6 0 *
So

0100000
-5 0 *
Co

1100000
+78 0 +77 0 +76 0 +75 0 -78 1 +75 1 -78 2 +78 3 +75 2 -75 3 
+74 0 +73 0 +72 0 +71 0 -74 4 +71 4 +70 0 +69 0 +68 0 +67 0 
-70 5 +67 5 +66 0 +65 0 -64 0 +66 1 +63 0 -62 0 +65 2 -61 0 
+60 0 -64 2 -66 2 +66 3 +59 0 +58 0 -57 0 +59 4 +56 0 +55 0 
+54 0 +53 0 +52 0 +51 0 -50 0 +52 5 +49 0 +48 0 +47 0 +46 0 
+45 0 +44 0 -43 0 -42 0 +41 0 -45 2 +40 0 +39 0 +38 0 +37 0 
+36 0 +35 0 -34 0 +33 0 +32 0 +31 0 +30 0 +29 0 +28 0 -27 0 
+26 0 +25 0 -24 0 -23 0 +22 0 -26 2 +21 0 +20 0 +19 0 +18 0 
+17 0 +16 0 -15 2 +14 0 +13 0 +12 0 +11 0 +10 0 +9 0 -8 0 
+7 0 -6 0 -5 0 +4 0 +3 0 +2 0 *

+1 0 