DBRep_DrawableShape

CASCADE Topology V1, (c) Matra-Datavision
Locations 0
Curve2ds 24
1 0 0 1 0 
1 0 0 1 0 
1 1 0 0 -1 
1 0 0 0 1 
1 0 -1 1 0 
1 0 0 1 0 
1 0 0 0 -1 
1 0 0 0 1 
1 0 0 1 0 
1 0 1 1 0 
1 1 0 0 -1 
1 1 0 0 1 
1 0 -1 1 0 
1 0 1 1 0 
1 0 0 0 -1 
1 1 0 0 1 
1 0 0 0 1 
1 0 0 1 0 
1 1 0 0 1 
1 0 0 1 0 
1 0 0 0 1 
1 0 1 1 0 
1 1 0 0 1 
1 0 1 1 0 
Curves 12
1 0 0 0 0 0 1 
1 0 0 1 -0 1 0 
1 0 1 0 0 0 1 
1 0 0 0 -0 1 0 
1 1 0 0 0 0 1 
1 1 0 1 -0 1 0 
1 1 1 0 0 0 1 
1 1 0 0 -0 1 0 
1 0 0 0 1 0 -0 
1 0 0 1 1 0 -0 
1 0 1 0 1 0 -0 
1 0 1 1 1 0 -0 
Polygon3D 0
PolygonOnTriangulations 0
Surfaces 6
1 0 0 0 1 0 -0 0 0 1 0 -1 0 
1 0 0 0 -0 1 0 0 0 1 1 0 -0 
1 0 0 1 0 0 1 1 0 -0 -0 1 0 
1 0 1 0 -0 1 0 0 0 1 1 0 -0 
1 0 0 0 0 0 1 1 0 -0 -0 1 0 
1 1 0 0 1 0 -0 0 0 1 0 -1 0 
Triangulations 0

TShapes 35
Ve
1e-07
0 0 1
0 0

0101101
*
Ve
1e-07
0 0 0
0 0

0101101
*
Ve
1e-07
0 1 1
0 0

0101101
*
Ve
1e-07
0 1 0
0 0

0101101
*
Ve
1e-07
1 0 1
0 0

0101101
*
Ve
1e-07
1 0 0
0 0

0101101
*
Ve
1e-07
1 1 1
0 0

0101101
*
Ve
1e-07
1 1 0
0 0

0101101
*
Ed
 1e-07 1 1 0
1  1 0 0 1
2  1 1 0 0 1
2  2 2 0 0 1
0

0101000
-35 0 +34 0 *
Ed
 1e-07 1 1 0
1  2 0 0 1
2  3 1 0 0 1
2  4 3 0 0 1
0

0101000
-33 0 +35 0 *
Ed
 1e-07 1 1 0
1  3 0 0 1
2  5 1 0 0 1
2  6 4 0 0 1
0

0101000
-33 0 +32 0 *
Ed
 1e-07 1 1 0
1  4 0 0 1
2  7 1 0 0 1
2  8 5 0 0 1
0

0101000
-32 0 +34 0 *
Ed
 1e-07 1 1 0
1  5 0 0 1
2  9 6 0 0 1
2  10 2 0 0 1
0

0101000
-31 0 +30 0 *
Ed
 1e-07 1 1 0
1  6 0 0 1
2  11 6 0 0 1
2  12 3 0 0 1
0

0101000
-29 0 +31 0 *
Ed
 1e-07 1 1 0
1  7 0 0 1
2  13 6 0 0 1
2  14 4 0 0 1
0

0101000
-29 0 +28 0 *
Ed
 1e-07 1 1 0
1  8 0 0 1
2  15 6 0 0 1
2  16 5 0 0 1
0

0101000
-28 0 +30 0 *
Ed
 1e-07 1 1 0
1  9 0 0 1
2  17 2 0 0 1
2  18 5 0 0 1
0

0101000
-30 0 +34 0 *
Ed
 1e-07 1 1 0
1  10 0 0 1
2  19 2 0 0 1
2  20 3 0 0 1
0

0101000
-31 0 +35 0 *
Ed
 1e-07 1 1 0
1  11 0 0 1
2  21 4 0 0 1
2  22 5 0 0 1
0

0101000
-28 0 +32 0 *
Ed
 1e-07 1 1 0
1  12 0 0 1
2  23 4 0 0 1
2  24 3 0 0 1
0

0101000
-29 0 +33 0 *
Wi

0101100
-27 0 -26 0 +25 0 +24 0 *
Wi

0101100
-23 0 -22 0 +21 0 +20 0 *
Wi

0101100
-19 0 -23 0 +18 0 +27 0 *
Wi

0101100
-17 0 -21 0 +16 0 +25 0 *
Wi

0101100
-24 0 -17 0 +20 0 +19 0 *
Wi

0101100
-26 0 -16 0 +22 0 +18 0 *
Fa
0  1e-07 1 0

0111000
+15 0 *
Fa
0  1e-07 6 0

0111000
+14 0 *
Fa
0  1e-07 2 0

0111000
+13 0 *
Fa
0  1e-07 4 0

0111000
+12 0 *
Fa
0  1e-07 5 0

0111000
+11 0 *
Fa
0  1e-07 3 0

0111000
+10 0 *
Sh

0101100
-9 0 +8 0 -7 0 +6 0 -5 0 +4 0 *
So

0100000
+3 0 *
Co

1100000
-35 0 +34 0 -33 0 -32 0 +31 0 -30 0 +29 0 +28 0 +27 0 +26 0 
-25 0 -24 0 -23 0 -22 0 +21 0 +20 0 +19 0 -18 0 -17 0 +16 0 
-15 0 +14 0 -13 0 +12 0 -11 0 +10 0 -9 0 +8 0 -7 0 +6 0 
-5 0 +4 0 +3 0 +2 0 *

+1 0 