DBRep_DrawableShape

CASCADE Topology V1, (c) Matra-Datavision
Locations 6
1
              1               0               0               0 
              0               1               0             100 
              0               0               1               0 
1
              1               0               0               0 
              0               1               0               0 
              0               0               1              25 
2  1 1 2 1 0
2  1 -1 0
2  2 -1 0
2  2 -1 1 -1 0
Curve2ds 12
1 0 0 1 0 
1 0 -100 1 0 
1 0 0 1 0 
1 0 -25 1 0 
1 0 0 1 0 
1 0 -25 1 0 
1 0 0 0 -1 
1 1 0 0 -1 
1 0 0 0 -1 
1 0 0 0 -1 
1 1 0 0 -1 
1 1 0 0 -1 
Curves 7
6 0 3 0 0 0  50 0 25  100 0 0  150 0 0  
1 0 0 0 0 1 0 
1 150 0 0 0 1 0 
1 0 0 0 0 0 1 
1 0 100 0 0 0 1 
1 150 0 0 0 0 1 
1 150 100 0 0 0 1 
Polygon3D 0
PolygonOnTriangulations 0
Surfaces 5
6 -0 -1 -0 
6 0 3 0 0 0  50 0 25  100 0 0  150 0 0  
6 -0 -0 -1 
6 0 3 0 0 0  50 0 25  100 0 0  150 0 0  
6 -0 -0 -1 
6 0 3 0 100 0  50 100 25  100 100 0  150 100 0  
1 0 0 0 -1 0 0 0 1 0 0 0 -1 
1 150 0 0 -1 0 0 0 1 0 0 0 -1 
Triangulations 0

TShapes 24
Ve
1e-07
0 0 0
0 0

0101101
*
Ve
1e-07
50 0 25
0 0

0101101
*
Ve
1e-07
100 0 0
0 0

0101101
*
Ve
1e-07
150 0 0
0 0

0101101
*
Ed
 1e-07 1 1 0
1  1 0 0 1
2  1 1 0 0 1
2  2 1 4 0 1
2  3 2 0 0 1
2  4 2 5 0 1
2  5 3 4 0 1
2  6 3 6 0 1
0

0101000
+24 0 -21 0 *
Ed
 1e-07 1 1 0
1  2 0 0 100
2  7 1 0 0 100
0

0101000
+24 0 -24 1 *
Ed
 1e-07 1 1 0
1  3 0 0 100
2  8 1 0 0 100
0

0101000
+21 0 -21 1 *
Ed
 1e-07 1 1 0
1  4 0 0 25
2  9 2 0 0 25
0

0101000
+24 0 -24 2 *
Ed
 1e-07 1 1 0
1  5 0 0 25
2  10 3 0 0 25
0

0101000
+24 1 -24 3 *
Ed
 1e-07 1 1 0
1  6 0 0 25
2  11 2 0 0 25
0

0101000
+21 0 -21 2 *
Ed
 1e-07 1 1 0
1  7 0 0 25
2  12 3 0 0 25
0

0101000
+21 1 -21 3 *
Wi

0101100
+19 0 -18 0 -20 0 +20 1 *
Wi

0101100
+17 0 -16 0 -19 0 +19 2 *
Wi

0101100
+15 0 -14 0 -18 0 +18 2 *
Wi

0101100
+17 0 -15 0 -20 0 +20 2 *
Wi

0101100
+16 0 -14 0 -20 1 +20 3 *
Fa
0  1e-07 1 0

0101000
+13 0 *
Fa
0  1e-07 4 0

0101000
+12 0 *
Fa
0  1e-07 5 0

0101000
+11 0 *
Fa
0  1e-07 2 0

0101000
+10 0 *
Fa
0  1e-07 3 0

0101000
+9 0 *
Sh

0101100
+7 0 -6 0 -5 0 +4 0 +8 0 -8 2 *
So

0100000
+3 0 *
Co

1100000
+24 0 +23 0 +22 0 +21 0 -24 1 +21 1 -24 2 +24 3 +21 2 -21 3 
+20 0 +19 0 -18 0 +20 1 +17 0 -16 0 +19 2 -15 0 +14 0 -18 2 
-20 2 +20 3 +13 0 +12 0 -11 0 -10 0 +9 0 -13 2 +8 0 +7 0 
-6 0 -5 0 +4 0 -8 2 +3 0 +2 0 *

+1 0 